<svg xmlns="http://www.w3.org/2000/svg" xmlns:xlink="http://www.w3.org/1999/xlink" width="500" zoomAndPan="magnify" viewBox="0 0 375 374.999991" height="500" preserveAspectRatio="xMidYMid meet" version="1.0"><defs><g/></defs><g fill="#ff00ff" fill-opacity="1"><g transform="translate(88.951046, 236.102262)"><g><path d="M 67.15625 -12.375 C 63.65625 -8.144531 59.421875 -4.867188 54.453125 -2.546875 C 49.472656 -0.210938 44.128906 0.953125 38.421875 0.953125 C 31.222656 0.953125 24.609375 -1.054688 18.578125 -5.078125 C 12.546875 -8.992188 7.726562 -14.5 4.125 -21.59375 L 16.03125 -27.625 C 18.363281 -22.75 21.539062 -18.988281 25.5625 -16.34375 C 29.476562 -13.59375 33.765625 -12.21875 38.421875 -12.21875 C 43.609375 -12.21875 48.265625 -13.648438 52.390625 -16.515625 C 56.410156 -19.265625 59.582031 -23.441406 61.90625 -29.046875 C 64.238281 -34.554688 65.40625 -41.222656 65.40625 -49.046875 L 65.40625 -103.34375 L 78.578125 -103.34375 L 78.578125 -49.046875 C 78.578125 -41.535156 77.625 -34.660156 75.71875 -28.421875 C 73.707031 -22.171875 70.851562 -16.820312 67.15625 -12.375 Z M 67.15625 -12.375 "/></g></g></g><g fill="#ff00ff" fill-opacity="1"><g transform="translate(148.475986, 236.102262)"><g><path d="M 70.484375 -99.6875 L 97.15625 -35.71875 L 119.21875 -103.34375 L 133.03125 -103.34375 L 98.578125 2.546875 L 70.484375 -65.25 L 42.234375 2.546875 L 7.46875 -103.34375 L 21.265625 -103.34375 L 43.8125 -35.5625 Z M 70.484375 -99.6875 "/></g></g></g><g fill="#ff00ff" fill-opacity="1"><g transform="translate(257.211022, 236.102262)"><g><path d="M 17.296875 0 C 15.503906 0 13.972656 -0.6875 12.703125 -2.0625 C 11.429688 -3.332031 10.796875 -4.867188 10.796875 -6.671875 C 10.796875 -8.460938 11.484375 -9.992188 12.859375 -11.265625 C 14.128906 -12.535156 15.609375 -13.171875 17.296875 -13.171875 C 19.097656 -13.171875 20.6875 -12.535156 22.0625 -11.265625 C 23.332031 -9.890625 23.96875 -8.359375 23.96875 -6.671875 C 23.96875 -4.867188 23.332031 -3.332031 22.0625 -2.0625 C 20.6875 -0.6875 19.097656 0 17.296875 0 Z M 17.296875 0 "/></g></g></g><g fill="#00ffff" fill-opacity="1"><g transform="translate(82.997578, 236.102262)"><g><path d="M 67.15625 -12.375 C 63.65625 -8.144531 59.421875 -4.867188 54.453125 -2.546875 C 49.472656 -0.210938 44.128906 0.953125 38.421875 0.953125 C 31.222656 0.953125 24.609375 -1.054688 18.578125 -5.078125 C 12.546875 -8.992188 7.726562 -14.5 4.125 -21.59375 L 16.03125 -27.625 C 18.363281 -22.75 21.539062 -18.988281 25.5625 -16.34375 C 29.476562 -13.59375 33.765625 -12.21875 38.421875 -12.21875 C 43.609375 -12.21875 48.265625 -13.648438 52.390625 -16.515625 C 56.410156 -19.265625 59.582031 -23.441406 61.90625 -29.046875 C 64.238281 -34.554688 65.40625 -41.222656 65.40625 -49.046875 L 65.40625 -103.34375 L 78.578125 -103.34375 L 78.578125 -49.046875 C 78.578125 -41.535156 77.625 -34.660156 75.71875 -28.421875 C 73.707031 -22.171875 70.851562 -16.820312 67.15625 -12.375 Z M 67.15625 -12.375 "/></g></g></g><g fill="#00ffff" fill-opacity="1"><g transform="translate(142.522518, 236.102262)"><g><path d="M 70.484375 -99.6875 L 97.15625 -35.71875 L 119.21875 -103.34375 L 133.03125 -103.34375 L 98.578125 2.546875 L 70.484375 -65.25 L 42.234375 2.546875 L 7.46875 -103.34375 L 21.265625 -103.34375 L 43.8125 -35.5625 Z M 70.484375 -99.6875 "/></g></g></g><g fill="#00ffff" fill-opacity="1"><g transform="translate(251.257554, 236.102262)"><g><path d="M 17.296875 0 C 15.503906 0 13.972656 -0.6875 12.703125 -2.0625 C 11.429688 -3.332031 10.796875 -4.867188 10.796875 -6.671875 C 10.796875 -8.460938 11.484375 -9.992188 12.859375 -11.265625 C 14.128906 -12.535156 15.609375 -13.171875 17.296875 -13.171875 C 19.097656 -13.171875 20.6875 -12.535156 22.0625 -11.265625 C 23.332031 -9.890625 23.96875 -8.359375 23.96875 -6.671875 C 23.96875 -4.867188 23.332031 -3.332031 22.0625 -2.0625 C 20.6875 -0.6875 19.097656 0 17.296875 0 Z M 17.296875 0 "/></g></g></g><g fill="#ffffff" fill-opacity="1"><g transform="translate(85.974312, 236.102262)"><g><path d="M 67.15625 -12.375 C 63.65625 -8.144531 59.421875 -4.867188 54.453125 -2.546875 C 49.472656 -0.210938 44.128906 0.953125 38.421875 0.953125 C 31.222656 0.953125 24.609375 -1.054688 18.578125 -5.078125 C 12.546875 -8.992188 7.726562 -14.5 4.125 -21.59375 L 16.03125 -27.625 C 18.363281 -22.75 21.539062 -18.988281 25.5625 -16.34375 C 29.476562 -13.59375 33.765625 -12.21875 38.421875 -12.21875 C 43.609375 -12.21875 48.265625 -13.648438 52.390625 -16.515625 C 56.410156 -19.265625 59.582031 -23.441406 61.90625 -29.046875 C 64.238281 -34.554688 65.40625 -41.222656 65.40625 -49.046875 L 65.40625 -103.34375 L 78.578125 -103.34375 L 78.578125 -49.046875 C 78.578125 -41.535156 77.625 -34.660156 75.71875 -28.421875 C 73.707031 -22.171875 70.851562 -16.820312 67.15625 -12.375 Z M 67.15625 -12.375 "/></g></g></g><g fill="#ffffff" fill-opacity="1"><g transform="translate(145.499252, 236.102262)"><g><path d="M 70.484375 -99.6875 L 97.15625 -35.71875 L 119.21875 -103.34375 L 133.03125 -103.34375 L 98.578125 2.546875 L 70.484375 -65.25 L 42.234375 2.546875 L 7.46875 -103.34375 L 21.265625 -103.34375 L 43.8125 -35.5625 Z M 70.484375 -99.6875 "/></g></g></g><g fill="#ffffff" fill-opacity="1"><g transform="translate(254.234288, 236.102262)"><g><path d="M 17.296875 0 C 15.503906 0 13.972656 -0.6875 12.703125 -2.0625 C 11.429688 -3.332031 10.796875 -4.867188 10.796875 -6.671875 C 10.796875 -8.460938 11.484375 -9.992188 12.859375 -11.265625 C 14.128906 -12.535156 15.609375 -13.171875 17.296875 -13.171875 C 19.097656 -13.171875 20.6875 -12.535156 22.0625 -11.265625 C 23.332031 -9.890625 23.96875 -8.359375 23.96875 -6.671875 C 23.96875 -4.867188 23.332031 -3.332031 22.0625 -2.0625 C 20.6875 -0.6875 19.097656 0 17.296875 0 Z M 17.296875 0 "/></g></g></g></svg>