<svg xmlns="http://www.w3.org/2000/svg" xmlns:xlink="http://www.w3.org/1999/xlink" width="500" zoomAndPan="magnify" viewBox="0 0 375 374.999991" height="500" preserveAspectRatio="xMidYMid meet" version="1.0"><defs><g/><clipPath id="904468bb98"><path d="M 90.003906 90.003906 L 284.996094 90.003906 L 284.996094 284.996094 L 90.003906 284.996094 Z M 90.003906 90.003906 " clip-rule="nonzero"/></clipPath><clipPath id="cc3d3cef98"><path d="M 187.5 90.003906 C 133.65625 90.003906 90.003906 133.65625 90.003906 187.5 C 90.003906 241.34375 133.65625 284.996094 187.5 284.996094 C 241.34375 284.996094 284.996094 241.34375 284.996094 187.5 C 284.996094 133.65625 241.34375 90.003906 187.5 90.003906 Z M 187.5 90.003906 " clip-rule="nonzero"/></clipPath></defs><g clip-path="url(#904468bb98)"><g clip-path="url(#cc3d3cef98)"><path fill="#2e2e2e" d="M 90.003906 90.003906 L 284.996094 90.003906 L 284.996094 284.996094 L 90.003906 284.996094 Z M 90.003906 90.003906 " fill-opacity="1" fill-rule="nonzero"/></g></g><g fill="#ededed" fill-opacity="1"><g transform="translate(101.011581, 225.681811)"><g><path d="M 59.109375 -11.03125 C 56.023438 -7.21875 52.300781 -4.3125 47.9375 -2.3125 C 43.488281 -0.226562 38.722656 0.8125 33.640625 0.8125 C 27.378906 0.8125 21.566406 -0.957031 16.203125 -4.5 C 10.847656 -7.945312 6.582031 -12.800781 3.40625 -19.0625 L 17.15625 -25.875 C 18.882812 -22.25 21.203125 -19.4375 24.109375 -17.4375 C 27.015625 -15.4375 30.191406 -14.4375 33.640625 -14.4375 C 39.816406 -14.4375 44.722656 -16.976562 48.359375 -22.0625 C 51.984375 -27.144531 53.796875 -34 53.796875 -42.625 L 53.796875 -89.625 L 69.0625 -89.625 L 69.0625 -42.625 C 69.0625 -29.375 65.742188 -18.84375 59.109375 -11.03125 Z M 59.109375 -11.03125 "/></g></g></g><g fill="#ededed" fill-opacity="1"><g transform="translate(153.305381, 225.681811)"><g><path d="M 60.46875 -90.984375 L 82.125 -41.140625 L 98.34375 -89.625 L 114.546875 -89.625 L 83.90625 2.046875 L 60.46875 -51.890625 L 37.046875 2.046875 L 6.125 -89.625 L 22.34375 -89.625 L 38.6875 -40.859375 Z M 60.46875 -90.984375 "/></g></g></g></svg>